<?xml version="1.0" encoding="UTF-8"?>
<svg id="Layer_1" xmlns="http://www.w3.org/2000/svg" version="1.1" viewBox="0 0 100 100">
  <!-- Generator: Adobe Illustrator 29.6.1, SVG Export Plug-In . SVG Version: 2.1.1 Build 9)  -->
  <defs>
    <style>
      .st0 {
        fill: #006a5d;
      }
    </style>
  </defs>
  <path class="st0" d="M50,0C22.4,0,0,22.4,0,50s22.4,50,50,50,50-22.4,50-50S77.6,0,50,0ZM18.5,41c-.1.4-.3.7-.6,1-.3.3-.6.5-1.1.7-.4.2-1,.3-1.6.3h-2.3v3.6h-2.2v-10h4.5c.6,0,1.2,0,1.6.3.4.2.8.4,1.1.7.3.3.5.6.6,1s.2.8.2,1.2,0,.8-.2,1.2ZM21.9,46.6h-2v-10h2v10ZM28.2,46.6c0-.1,0-.2,0-.3s0-.2,0-.4c-.3.3-.7.6-1.1.7-.4.1-.9.2-1.3.2s-.7,0-1-.1-.6-.2-.8-.4-.4-.4-.5-.7c-.1-.3-.2-.6-.2-1s0-.7.2-1c.1-.3.3-.5.6-.6.2-.2.5-.3.8-.4.3,0,.6-.1.9-.2s.6,0,.9-.1c.3,0,.5,0,.8-.1.2,0,.4-.1.5-.2.1-.1.2-.3.2-.5,0-.2,0-.4-.1-.5,0-.1-.2-.2-.3-.3-.1,0-.3-.1-.4-.1-.2,0-.3,0-.5,0-.4,0-.7,0-.9.3-.2.2-.4.4-.4.8h-2c0-.5.1-.9.4-1.2.2-.3.5-.6.8-.7.3-.2.7-.3,1.1-.4.4,0,.8-.1,1.2-.1s.7,0,1.1,0c.4,0,.7.2,1,.3.3.1.6.4.8.6s.3.6.3,1.1v3.8c0,.3,0,.6,0,.9,0,.3.1.5.2.7h-2ZM32.3,45.8c-.3-.3-.6-.7-.7-1.2s-.3-.9-.3-1.5,0-1.1.2-1.6c.2-.5.4-.9.7-1.2.3-.4.7-.6,1.2-.8.5-.2,1-.3,1.6-.3s.8,0,1.2.2c.4.1.8.3,1.1.5.3.2.6.5.8.9.2.3.3.7.3,1.2h-1.9c-.1-.8-.6-1.2-1.5-1.2s-.6,0-.8.2c-.2.1-.4.3-.5.6-.1.2-.2.5-.3.8s0,.5,0,.8,0,.5,0,.8c0,.3.1.5.3.7s.3.4.5.5c.2.1.5.2.8.2.5,0,.8-.1,1.1-.4.3-.3.4-.6.5-1.1h1.9c-.1,1-.5,1.7-1.1,2.2-.6.5-1.4.8-2.4.8s-1,0-1.5-.3c-.5-.2-.8-.4-1.2-.8ZM40.6,60.6h-7.1v-10h2.2v8.1h4.9v1.8ZM40.2,45.8c-.3-.3-.6-.7-.7-1.2-.2-.5-.3-1-.3-1.5s0-1,.3-1.5.4-.9.8-1.2c.3-.3.7-.6,1.2-.8.5-.2,1-.3,1.5-.3s1.2.1,1.6.4c.5.2.8.6,1.1,1,.3.4.5.9.6,1.4.1.5.2,1.1.1,1.6h-5.2c0,.6.2,1.1.5,1.4.3.3.7.4,1.3.4s.7-.1,1-.3c.3-.2.5-.4.5-.6h1.8c-.3.9-.7,1.5-1.3,1.9-.6.4-1.3.6-2.1.6s-1.1,0-1.5-.3c-.5-.2-.8-.4-1.2-.8ZM48.6,58.6c-.2.5-.4.9-.8,1.2-.3.3-.7.6-1.2.8s-1,.3-1.5.3-1.1,0-1.5-.3c-.5-.2-.8-.4-1.2-.8-.3-.3-.6-.7-.8-1.2s-.3-1-.3-1.6,0-1.1.3-1.6.4-.9.8-1.2c.3-.3.7-.6,1.2-.8.5-.2,1-.3,1.5-.3s1.1,0,1.5.3c.5.2.9.4,1.2.8.3.3.6.7.8,1.2s.3,1,.3,1.6,0,1.1-.3,1.6ZM49.6,42.8v3.8h-2v-10h2v3.8h0c.3-.4.6-.7,1-.9s.8-.3,1.1-.3c.5,0,1,0,1.3.2.3.1.6.3.8.6.2.3.3.6.4.9,0,.4.1.8.1,1.2v4.5h-2v-4.1c0-.6,0-1-.3-1.3-.2-.3-.5-.4-1-.4s-.9.2-1.2.5c-.2.3-.4.9-.4,1.6ZM57.1,60.2c0,.3,0,.6-.1,1,0,.4-.2.7-.5,1-.3.3-.6.6-1.1.8-.5.2-1.2.3-2,.3s-.7,0-1.1-.1c-.4,0-.7-.2-1-.4-.3-.2-.6-.4-.8-.7s-.3-.6-.3-1.1h2c0,.4.3.6.5.8.3.1.6.2.9.2.6,0,1-.2,1.2-.5.3-.3.4-.8.4-1.3v-1h0c-.2.4-.5.7-.9.8s-.8.3-1.3.3-1,0-1.4-.3c-.4-.2-.7-.5-1-.8-.3-.3-.4-.7-.6-1.2s-.2-.9-.2-1.4,0-.9.2-1.4c.1-.4.3-.8.6-1.1.3-.3.6-.6,1-.8.4-.2.8-.3,1.3-.3s.9,0,1.3.3c.4.2.7.5.9.9h0v-1h1.9v6.8ZM56.7,45.8c-.3-.3-.6-.7-.8-1.2s-.3-1-.3-1.6,0-1.1.3-1.6.4-.9.8-1.2c.3-.3.7-.6,1.2-.8.5-.2,1-.3,1.5-.3s1.1,0,1.5.3c.5.2.9.4,1.2.8.3.3.6.7.8,1.2s.3,1,.3,1.6,0,1.1-.3,1.6-.4.9-.8,1.2c-.3.3-.7.6-1.2.8s-1,.3-1.5.3-1.1,0-1.5-.3c-.5-.2-.8-.4-1.2-.8ZM65.7,58.6c-.2.5-.4.9-.8,1.2-.3.3-.7.6-1.2.8s-1,.3-1.5.3-1.1,0-1.5-.3c-.5-.2-.8-.4-1.2-.8-.3-.3-.6-.7-.8-1.2s-.3-1-.3-1.6,0-1.1.3-1.6.4-.9.8-1.2c.3-.3.7-.6,1.2-.8.5-.2,1-.3,1.5-.3s1.1,0,1.5.3c.5.2.9.4,1.2.8.3.3.6.7.8,1.2s.3,1,.3,1.6,0,1.1-.3,1.6ZM66.5,46.6h-2v-10h2v10ZM75.1,46.6h-1.9v-.9h0c-.2.4-.5.7-.9.8-.4.2-.8.3-1.3.3s-1-.1-1.4-.3-.7-.5-1-.9-.5-.8-.6-1.2c-.1-.5-.2-1-.2-1.5s0-1,.2-1.4.3-.9.6-1.2c.3-.3.6-.6,1-.8s.9-.3,1.4-.3.8,0,1.2.3c.4.2.7.5.9.8h0v-3.6h2v10ZM78.7,44.9c.3.3.7.4,1.3.4s.7-.1,1-.3c.3-.2.5-.4.5-.6h1.8c-.3.9-.7,1.5-1.3,1.9-.6.4-1.3.6-2.1.6s-1.1,0-1.5-.3c-.5-.2-.8-.4-1.2-.8s-.6-.7-.7-1.2c-.2-.5-.3-1-.3-1.5s0-1,.3-1.5.4-.9.8-1.2c.3-.3.7-.6,1.2-.8.5-.2,1-.3,1.5-.3s1.2.1,1.6.4c.5.2.8.6,1.1,1,.3.4.5.9.6,1.4.1.5.2,1.1.1,1.6h-5.2c0,.6.2,1.1.5,1.4ZM88.9,41.1c-.1,0-.3,0-.4,0-.4,0-.7,0-.9.2-.3.1-.5.3-.6.5-.2.2-.3.5-.3.7,0,.3,0,.6,0,.9v3.3h-2v-7.2h1.9v1.3h0c0-.2.2-.4.4-.6.2-.2.3-.4.5-.5.2-.1.4-.2.7-.3s.5-.1.7-.1.3,0,.4,0v1.8c0,0-.2,0-.3,0Z"/>
  <path class="st0" d="M63.6,55.4c-.1-.2-.3-.4-.5-.5-.2-.1-.5-.2-.8-.2s-.6,0-.8.2c-.2.1-.4.3-.5.5-.1.2-.2.5-.3.7,0,.3,0,.6,0,.9s0,.6,0,.8c0,.3.2.5.3.7.1.2.3.4.5.5.2.1.5.2.8.2s.6,0,.8-.2c.2-.1.4-.3.5-.5s.2-.5.3-.7c0-.3,0-.6,0-.8s0-.6,0-.9c0-.3-.2-.5-.3-.7Z"/>
  <path class="st0" d="M54.9,55.4c-.1-.2-.3-.4-.5-.5s-.5-.2-.8-.2-.5,0-.7.2c-.2.1-.4.3-.5.5s-.2.4-.3.7c0,.2,0,.5,0,.8s0,.5,0,.8c0,.3.1.5.3.7.1.2.3.4.5.5.2.1.5.2.8.2s.5,0,.7-.2c.2-.1.4-.3.5-.4.1-.2.2-.4.3-.6,0-.2.1-.5.1-.7s0-.6,0-.8c0-.3-.1-.5-.3-.7Z"/>
  <path class="st0" d="M60.2,45.1c.2-.1.4-.3.5-.5s.2-.5.3-.7c0-.3,0-.6,0-.8s0-.6,0-.9c0-.3-.2-.5-.3-.7-.1-.2-.3-.4-.5-.5-.2-.1-.5-.2-.8-.2s-.6,0-.8.2c-.2.1-.4.3-.5.5-.1.2-.2.5-.3.7,0,.3,0,.6,0,.9s0,.6,0,.8c0,.3.2.5.3.7.1.2.3.4.5.5.2.1.5.2.8.2s.6,0,.8-.2Z"/>
  <path class="st0" d="M46.5,55.4c-.1-.2-.3-.4-.5-.5-.2-.1-.5-.2-.8-.2s-.6,0-.8.2c-.2.1-.4.3-.5.5-.1.2-.2.5-.3.7,0,.3,0,.6,0,.9s0,.6,0,.8c0,.3.2.5.3.7.1.2.3.4.5.5.2.1.5.2.8.2s.6,0,.8-.2c.2-.1.4-.3.5-.5s.2-.5.3-.7c0-.3,0-.6,0-.8s0-.6,0-.9c0-.3-.2-.5-.3-.7Z"/>
  <path class="st0" d="M27.2,43.4c-.1,0-.3,0-.5,0s-.3,0-.5,0c-.1,0-.3,0-.4.1-.1,0-.3.1-.4.2-.1,0-.2.2-.3.3,0,.1,0,.3,0,.5s0,.3,0,.4c0,.1.2.2.3.3.1,0,.2.1.4.1.1,0,.3,0,.5,0,.4,0,.7,0,.9-.2.2-.1.4-.3.5-.5.1-.2.2-.4.2-.6,0-.2,0-.3,0-.4v-.7c0,0-.2.1-.3.2s-.3,0-.4.1Z"/>
  <path class="st0" d="M43.9,41.1c-.2-.3-.6-.4-1.1-.4s-.6,0-.8.2-.4.2-.5.4-.2.3-.3.5,0,.3,0,.5h3.2c0-.5-.3-.9-.5-1.1Z"/>
  <path class="st0" d="M16,38.6c-.2-.1-.4-.2-.6-.2-.2,0-.5,0-.7,0h-1.7v3h1.7c.3,0,.5,0,.7,0,.2,0,.4-.1.6-.2s.3-.3.4-.5c.1-.2.2-.5.2-.8s0-.6-.2-.8c-.1-.2-.2-.3-.4-.5Z"/>
  <path class="st0" d="M79.9,40.7c-.3,0-.6,0-.8.2s-.4.2-.5.4-.2.3-.3.5,0,.3,0,.5h3.2c0-.5-.3-.9-.5-1.1-.2-.3-.6-.4-1.1-.4Z"/>
  <path class="st0" d="M72.8,41.4c-.1-.2-.3-.4-.5-.5-.2-.1-.5-.2-.8-.2s-.6,0-.8.2c-.2.1-.4.3-.5.5-.1.2-.2.5-.3.7s0,.6,0,.9,0,.6,0,.8c0,.3.2.5.3.7.1.2.3.4.5.5s.5.2.8.2.6,0,.8-.2c.2-.1.4-.3.5-.5.1-.2.2-.5.3-.7s0-.6,0-.9,0-.6,0-.9-.2-.5-.3-.7Z"/>
</svg>